<svg width="1433" height="1025" viewBox="0 0 1433 1025" fill="none" xmlns="http://www.w3.org/2000/svg">
<path d="M248.416 0.327243L248.416 1024.33M78.4124 0.327219L78.4165 1024.33M163.416 0.32724L163.42 1024.33M333.416 0.327246L333.416 1024.33M588.417 0.327248L588.417 1024.33M418.413 0.327223L418.417 1024.33M503.416 0.327237L503.421 1024.33M673.417 0.327251L673.417 1024.33M928.417 0.327244L928.417 1024.33M758.413 0.327219L758.417 1024.33M843.416 0.327241L843.421 1024.33M1013.42 0.327247L1013.42 1024.33M1268.42 0.327248L1268.42 1024.33M1098.41 0.327223L1098.42 1024.33M1183.42 0.327237L1183.42 1024.33M1353.42 0.327251L1353.42 1024.33M-7.08402 85.3272L1432.92 85.3272M-7.08406 170.327L1432.92 170.327M-7.08398 255.327L1432.92 255.327M-7.08402 340.327L1432.92 340.327M-7.08406 425.327L1432.92 425.327M-7.08411 510.327L1432.92 510.327M-7.08402 595.327L1432.92 595.327M-7.08407 680.327L1432.92 680.327M-7.08411 765.327L1432.92 765.327M-7.08415 850.327L1432.92 850.327M-7.08407 935.327L1432.92 935.327" stroke="url(#paint0_radial_71_117)" stroke-width="0.5"/>
<defs>
<radialGradient id="paint0_radial_71_117" cx="0" cy="0" r="1" gradientUnits="userSpaceOnUse" gradientTransform="translate(712.916 512.327) rotate(-89.9907) scale(516.827 367.756)">
<stop stop-color="#262626" stop-opacity="0.29"/>
<stop offset="1" stop-color="#262626" stop-opacity="0"/>
</radialGradient>
</defs>
</svg>
